<svg width="88" height="81" viewBox="0 0 88 81" fill="none" xmlns="http://www.w3.org/2000/svg">
<path d="M64.3083 53.5424C64.5525 53.6138 64.7037 53.721 64.9052 53.8798C67.5292 55.9046 70.0757 58.0683 72.6416 60.1764L80.0136 66.195C81.0317 67.0446 82.0602 67.881 83.0989 68.7041C84.002 69.4266 84.9981 70.1293 85.7617 71.0147C86.6919 72.0906 87.095 73.7183 87.002 75.1396C86.9968 75.2428 86.9891 75.346 86.9787 75.4492C86.9658 75.5525 86.9516 75.6544 86.9361 75.7549C86.918 75.8582 86.8986 75.9601 86.8779 76.0606C86.8573 76.1639 86.834 76.2658 86.8082 76.3663C86.7798 76.4643 86.75 76.5635 86.719 76.6641C86.688 76.762 86.6544 76.8599 86.6183 76.9579C86.5821 77.0532 86.5446 77.1484 86.5059 77.2437C86.4645 77.339 86.4206 77.433 86.3741 77.5256C86.3301 77.6182 86.2836 77.7095 86.2346 77.7995C86.1829 77.8922 86.1299 77.9822 86.0756 78.0695C86.0214 78.1568 85.9658 78.2429 85.909 78.3276C85.8495 78.4122 85.7888 78.4956 85.7268 78.5777C85.6648 78.6597 85.6002 78.7391 85.533 78.8159C85.4684 78.8953 85.3999 78.972 85.3276 79.0461C85.2578 79.1202 85.1867 79.193 85.1144 79.2645C85.0395 79.3359 84.9645 79.4061 84.8896 79.4749C83.564 80.6461 81.9981 81.1066 80.2695 80.9796C80.1454 80.9637 80.0253 80.9478 79.9051 80.924C79.1532 80.7731 78.4904 80.4833 77.8586 80.0347C76.7385 79.2367 75.6958 78.264 74.6338 77.3827L61.5331 66.6119C60.3665 65.6551 59.1378 64.7499 58.006 63.7574C57.7463 63.5311 57.5215 63.2929 57.3355 63.0031C57.351 62.7212 57.6184 62.3798 57.7773 62.1495C58.6456 60.895 59.6611 59.7158 60.568 58.4851C61.4866 57.2385 63.3122 54.5031 64.3083 53.5424Z" fill="#A5C6C6"/>
<path fill-rule="evenodd" clip-rule="evenodd" d="M47.7152 4.54521C42.4953 1.29408 35.9549 -0.412469 29.8235 0.0852675C21.1678 0.654103 13.4354 4.62024 7.71689 11.2292C7.54809 11.424 7.38185 11.6229 7.21823 11.8256C7.05462 12.0258 6.89365 12.2286 6.73522 12.434C6.57417 12.6394 6.41706 12.8461 6.26382 13.0542C6.11067 13.2649 5.95875 13.4769 5.80807 13.6902C5.6601 13.9009 5.51337 14.1155 5.36787 14.3341C5.29368 14.4463 5.21983 14.5589 5.14629 14.6719C5.07836 14.7762 5.01068 14.8809 4.94333 14.9859C4.80565 15.2071 4.67061 15.4297 4.53821 15.6535C4.40317 15.8774 4.272 16.1025 4.1447 16.329C4.01749 16.5555 3.89282 16.7833 3.77079 17.0124C3.64876 17.2416 3.52929 17.4733 3.41236 17.7077C3.29552 17.9394 3.18123 18.1725 3.06958 18.4069C2.95793 18.6439 2.85014 18.8809 2.74631 19.118C2.63984 19.3576 2.53725 19.5973 2.43852 19.8369C2.33988 20.0792 2.24378 20.3215 2.15025 20.5638C2.05679 20.8061 1.96588 21.051 1.87762 21.2985C1.78935 21.5435 1.70486 21.7897 1.62442 22.0373C1.54134 22.2848 1.46212 22.5336 1.38678 22.7839C1.31144 23.034 1.23873 23.2842 1.16866 23.5344C1.13054 23.6705 1.09357 23.8073 1.05767 23.9449C1.02761 24.0603 0.998381 24.1763 0.969974 24.2929C0.907642 24.5457 0.846627 24.7985 0.786848 25.0513C0.761652 25.1643 0.737114 25.2773 0.7134 25.3902C0.683428 25.5327 0.654691 25.6752 0.627189 25.8177C0.599276 25.955 0.572433 26.0927 0.546742 26.2307C0.524675 26.3495 0.503431 26.4687 0.483011 26.588C0.436323 26.8461 0.394741 27.1042 0.358347 27.3623C0.342373 27.4681 0.32681 27.5739 0.311742 27.6798C0.290086 27.832 0.269254 27.9843 0.249328 28.1365C0.238129 28.2295 0.22726 28.3226 0.216638 28.4158C0.197865 28.5816 0.180244 28.7479 0.163611 28.9148C0.137674 29.1755 0.114289 29.4349 0.0934567 29.693C0.0727069 29.9537 0.055827 30.2144 0.0428172 30.4751C0.0298897 30.7359 0.0195148 30.9966 0.0116924 31.2573C0.00387001 31.518 0 31.7801 0 32.0434C0 32.3042 0.0026349 32.5648 0.00782237 32.8256C0.0130098 33.0863 0.0220673 33.347 0.0350771 33.6077C0.0406763 33.7476 0.0473459 33.8874 0.0551683 34.0272C0.0619202 34.1481 0.0694956 34.269 0.0778943 34.3899C0.0960916 34.6612 0.118159 34.9324 0.144096 35.2037C0.159906 35.3681 0.176538 35.5321 0.194242 35.6956C0.205687 35.8018 0.217544 35.9077 0.229813 36.0135C0.26102 36.2848 0.296097 36.5547 0.335044 36.8233C0.373992 37.0919 0.415491 37.3605 0.459626 37.6292C0.503843 37.8978 0.551847 38.1651 0.603804 38.4311C0.655761 38.6997 0.710271 38.9657 0.767415 39.2291C0.82456 39.4951 0.885574 39.761 0.950459 40.027C1.01543 40.2904 1.08295 40.5524 1.15302 40.8131C1.19979 40.9887 1.2482 41.1636 1.29843 41.3379C1.32354 41.4252 1.34907 41.5123 1.37509 41.5993C1.45298 41.86 1.53351 42.1194 1.6166 42.3775C1.69968 42.6355 1.78539 42.8937 1.87375 43.1518C1.96457 43.4072 2.05811 43.6613 2.1542 43.9142C2.25029 44.1696 2.34893 44.4224 2.45021 44.6726C2.53 44.8668 2.61061 45.0595 2.69188 45.2506C2.71642 45.3083 2.74104 45.3658 2.76574 45.4232C2.87484 45.6734 2.9865 45.9209 3.10079 46.1658C3.21508 46.4134 3.33192 46.6583 3.45139 46.9006C3.57342 47.1429 3.69677 47.3839 3.82143 47.6235C3.94865 47.8658 4.0785 48.1041 4.21099 48.3385C4.34084 48.5755 4.47456 48.8112 4.61223 49.0456C4.74982 49.28 4.89137 49.5118 5.03678 49.7409C5.17964 49.97 5.32506 50.1978 5.4731 50.4243C5.62107 50.6508 5.77307 50.8746 5.92886 51.0958C6.0821 51.3197 6.2392 51.5409 6.40018 51.7595C6.50055 51.898 6.60249 52.0353 6.70599 52.1717C6.76585 52.2506 6.82621 52.3292 6.88714 52.4073C7.05075 52.6233 7.21823 52.8353 7.38967 53.0433C7.55847 53.254 7.73113 53.4621 7.90776 53.6675C8.08174 53.8755 8.2596 54.0797 8.44141 54.2798C8.57595 54.4321 8.71272 54.5822 8.85179 54.7301C8.8979 54.7791 8.94418 54.8278 8.9907 54.8763C9.17506 55.0738 9.36206 55.2687 9.55161 55.461C9.74115 55.6532 9.93334 55.8428 10.1282 56.0298C10.3229 56.2168 10.5189 56.4024 10.7163 56.5868C10.9163 56.7685 11.1176 56.9476 11.3201 57.124C11.4133 57.2069 11.5069 57.2891 11.6007 57.3707C11.6977 57.4551 11.7951 57.5388 11.8928 57.6218C12.0849 57.785 12.2784 57.9457 12.4732 58.1037C12.6705 58.2617 12.8692 58.4184 13.0692 58.5738C13.1743 58.6541 13.2797 58.734 13.3856 58.8135C13.4811 58.8853 13.5769 58.9569 13.673 59.0281C13.8781 59.1756 14.0833 59.3204 14.2884 59.4626C14.4962 59.6075 14.7053 59.7484 14.9156 59.8853C15.126 60.0249 15.3389 60.1605 15.5545 60.2922C15.7674 60.4265 15.983 60.5569 16.2011 60.6833C16.4167 60.8123 16.6348 60.9374 16.8556 61.0586C17.0763 61.1823 17.297 61.3022 17.5177 61.4181C17.7411 61.5339 17.9658 61.6471 18.1917 61.7578C18.3621 61.8412 18.5332 61.9239 18.7052 62.0058C18.7612 62.0325 18.8172 62.0591 18.8734 62.0856C19.0163 62.1515 19.1598 62.2159 19.3037 62.2787C19.3899 62.3163 19.4763 62.3533 19.5628 62.3898C19.794 62.4899 20.0251 62.5874 20.2562 62.6821C20.49 62.7743 20.725 62.8652 20.9613 62.9547C21.1951 63.0416 21.4314 63.1259 21.6703 63.2076C21.9067 63.2918 22.1442 63.3721 22.3832 63.4485C22.5087 63.4868 22.634 63.5248 22.7589 63.5625C22.8742 63.5972 22.9892 63.6316 23.1038 63.6658C23.3453 63.7369 23.5881 63.8041 23.8323 63.8672C24.0738 63.9305 24.3166 63.991 24.5608 64.049C24.8048 64.1095 25.0503 64.1648 25.297 64.2149C25.5411 64.2676 25.7865 64.3163 26.0332 64.361C26.2799 64.4085 26.528 64.4519 26.7772 64.4914C27.0239 64.5309 27.2719 64.5678 27.5212 64.602C27.7706 64.6336 28.0199 64.6639 28.2691 64.6929C28.4364 64.7105 28.6036 64.727 28.7708 64.7423C28.8529 64.7498 28.935 64.757 29.0171 64.764C29.2664 64.785 29.517 64.8022 29.7689 64.8153C30.0182 64.8311 30.2689 64.843 30.5207 64.8509C30.7701 64.8614 31.0206 64.8667 31.2725 64.8667C31.5218 64.8693 31.7725 64.8693 32.0244 64.8667C32.2762 64.8614 32.5269 64.8535 32.7762 64.843C33.0281 64.8325 33.2787 64.8193 33.528 64.8035C36.0795 64.6217 38.4791 64.1438 40.941 63.4446C45.5259 61.9277 49.4876 59.6483 53.0714 56.3656C54.0601 57.3184 55.1119 58.1656 56.1756 59.0225C56.2938 59.1177 56.4121 59.213 56.5305 59.3086C56.7244 59.4647 56.9155 59.6269 57.1068 59.7892C57.4769 60.1031 57.8477 60.4178 58.2407 60.6912C59.3544 59.3077 60.4213 57.8839 61.4869 56.4621C61.7965 56.0488 62.1061 55.6358 62.4166 55.2239C61.1437 54.0337 59.8025 52.9179 58.4643 51.8046C58.1725 51.5619 57.8809 51.3193 57.5901 51.0761C58.5367 49.5157 59.456 47.9435 60.2 46.2686C60.2935 46.0605 60.3844 45.8498 60.4728 45.6365C60.561 45.4232 60.6467 45.2099 60.7298 44.9965C60.8129 44.7832 60.8947 44.5686 60.9752 44.3526C61.0531 44.1367 61.1297 43.9207 61.205 43.7048C61.2804 43.4862 61.3531 43.2676 61.4232 43.049C61.4933 42.8304 61.5622 42.6119 61.6297 42.3933C61.6946 42.172 61.7582 41.9509 61.8205 41.7296C61.8829 41.5084 61.9426 41.2859 61.9998 41.062C62.0569 40.8408 62.1114 40.6182 62.1633 40.3944C62.194 40.2687 62.2234 40.1425 62.2516 40.016C62.2735 39.9172 62.2948 39.8182 62.3153 39.7189C62.3646 39.4951 62.4101 39.2699 62.4516 39.0434C62.4744 38.9264 62.4965 38.8094 62.518 38.6924C62.538 38.5829 62.5575 38.4734 62.5763 38.3639C62.6152 38.1374 62.6516 37.911 62.6853 37.6845C62.7217 37.4554 62.7542 37.2276 62.7827 37.0011C62.8139 36.772 62.8412 36.5428 62.8645 36.3137C62.8905 36.0872 62.9139 35.8581 62.9347 35.6264C62.9554 35.3972 62.9736 35.1681 62.9892 34.939C63.0014 34.7599 63.0119 34.5808 63.021 34.4017C63.0235 34.3517 63.0258 34.3017 63.0281 34.2517C63.0411 34.0225 63.0502 33.7921 63.0554 33.5604C63.0632 33.3312 63.0671 33.1008 63.0671 32.8691C63.0697 32.6399 63.0697 32.4108 63.0671 32.1817C63.0645 31.9499 63.0593 31.7195 63.0515 31.4904C63.0437 31.2613 63.0346 31.0308 63.0242 30.799C63.0168 30.6669 63.0084 30.5347 62.9992 30.4025C62.9924 30.3056 62.9852 30.2086 62.9775 30.1117C62.9619 29.8826 62.9437 29.6535 62.923 29.4244C62.8996 29.1952 62.8749 28.9661 62.8489 28.737C62.823 28.5079 62.7957 28.2801 62.7671 28.0536C62.736 27.8245 62.7022 27.5967 62.6659 27.3702C62.6321 27.1411 62.5944 26.9133 62.5529 26.6868C62.5139 26.4603 62.4724 26.2351 62.4282 26.0113C62.3841 25.7848 62.3374 25.5596 62.288 25.3358C62.2387 25.1093 62.1867 24.8841 62.1322 24.6603C62.0725 24.4022 62.0088 24.1454 61.9413 23.8899C61.8738 23.6319 61.8037 23.3751 61.731 23.1196C61.7111 23.0499 61.691 22.9803 61.6706 22.9108C61.6161 22.7256 61.5597 22.5411 61.5011 22.3572C61.4206 22.1044 61.3375 21.8516 61.2518 21.5988C61.1661 21.3485 61.0778 21.0984 60.9869 20.8482C60.896 20.6006 60.8013 20.3531 60.7026 20.1055C60.6039 19.858 60.5039 19.613 60.4026 19.3708C60.2987 19.1259 60.1909 18.8822 60.0793 18.6399C59.9702 18.4003 59.8585 18.1606 59.7443 17.921C59.6274 17.6813 59.5092 17.4443 59.3898 17.21C59.2677 16.9729 59.1431 16.7385 59.0158 16.5068C58.8886 16.275 58.7587 16.0433 58.6263 15.8115C58.4939 15.5824 58.3588 15.3559 58.2212 15.1321C58.0835 14.9056 57.942 14.6804 57.7966 14.4566C57.6537 14.2354 57.5083 14.0154 57.3603 13.7969C57.2096 13.5783 57.0577 13.361 56.9045 13.1451C56.7513 12.9291 56.5942 12.7158 56.4332 12.5051C56.2747 12.2944 56.1138 12.085 55.9501 11.877C55.7839 11.6716 55.6164 11.4675 55.4476 11.2647C55.2788 11.0593 55.1074 10.8578 54.9334 10.6603C54.7594 10.4628 54.5828 10.2666 54.4036 10.0717C54.2244 9.87681 54.0427 9.68459 53.8583 9.49496C53.6739 9.30533 53.4882 9.11835 53.3012 8.934C53.1892 8.82507 53.0768 8.71664 52.9639 8.60863C52.8857 8.53384 52.8072 8.45927 52.7286 8.3849C52.5364 8.20583 52.3416 8.02806 52.1443 7.85163C52.0603 7.77655 51.9761 7.70223 51.8917 7.62862C51.7777 7.52915 51.6632 7.43099 51.5483 7.33412C51.3457 7.16293 51.1419 6.99438 50.9367 6.82847C50.8145 6.72963 50.6918 6.63222 50.5687 6.53619C50.4851 6.471 50.4013 6.40648 50.3173 6.34259C50.107 6.18195 49.8953 6.02392 49.6824 5.86856C49.5803 5.79403 49.4779 5.72012 49.3752 5.64684C49.2637 5.56728 49.1518 5.48843 49.0396 5.41029C48.911 5.32181 48.782 5.2347 48.6525 5.14894C48.5623 5.08924 48.4719 5.0302 48.3813 4.97184C48.1605 4.82696 47.9385 4.68476 47.7152 4.54521ZM30.136 7.24333C30.0458 7.25125 29.9543 7.25917 29.8615 7.26713C23.3448 7.83018 17.2764 10.8081 13.0325 15.975C12.9161 16.1146 12.8017 16.2551 12.6891 16.3966L12.6305 16.4706C12.5016 16.6345 12.3741 16.8011 12.2478 16.9703C12.119 17.1394 11.994 17.3113 11.8729 17.4858C11.8028 17.5831 11.7335 17.681 11.665 17.7792C11.6127 17.8543 11.5609 17.9296 11.5096 18.0052C11.391 18.1823 11.2751 18.3594 11.1617 18.5366C11.0483 18.7163 10.9362 18.8974 10.8254 19.0798C10.7172 19.2596 10.6103 19.442 10.5046 19.627C10.399 19.8121 10.2959 19.9971 10.1954 20.1822C10.0949 20.3699 9.99699 20.5589 9.90164 20.7492C9.80373 20.9369 9.7097 21.1272 9.61945 21.3202C9.52929 21.5106 9.44036 21.7035 9.35275 21.8992C9.26514 22.0921 9.18017 22.2878 9.09766 22.4861C9.01779 22.6817 8.93924 22.8786 8.86192 23.0769C8.7846 23.2751 8.70984 23.4747 8.63771 23.6756C8.56558 23.8739 8.49468 24.0748 8.4251 24.2784C8.35816 24.4793 8.29369 24.6815 8.23185 24.885C8.17001 25.0886 8.11073 25.2935 8.05408 25.4997C7.99479 25.7032 7.93937 25.9094 7.88783 26.1183C7.8539 26.2542 7.82047 26.3901 7.78762 26.526C7.77066 26.5963 7.75378 26.6666 7.73715 26.7369C7.7094 26.8617 7.68214 26.9865 7.65538 27.1112C7.63735 27.1953 7.61948 27.2793 7.60186 27.3634C7.58103 27.4687 7.56085 27.5744 7.54134 27.6804C7.52224 27.7846 7.50379 27.8891 7.48592 27.9939C7.44722 28.2027 7.41248 28.4129 7.38152 28.6243C7.348 28.8358 7.31836 29.0473 7.29259 29.2588C7.27851 29.364 7.26533 29.4691 7.25315 29.5743C7.24088 29.6806 7.2296 29.7869 7.21922 29.8933C7.20802 29.995 7.19773 30.097 7.18834 30.1993C7.1783 30.3098 7.16924 30.4206 7.16117 30.5317C7.14577 30.7432 7.13161 30.956 7.11868 31.1701C7.10839 31.3842 7.09933 31.597 7.09168 31.8085C7.08649 32.0227 7.08394 32.2368 7.08394 32.4509C7.0813 32.665 7.08262 32.8778 7.08781 33.0893C7.09291 33.3034 7.09933 33.5176 7.10707 33.7317C7.11737 33.9458 7.13029 34.1586 7.14577 34.3701C7.15253 34.4829 7.16035 34.5954 7.16932 34.7075C7.17739 34.8081 7.18629 34.9085 7.196 35.0085C7.21404 35.22 7.23462 35.4302 7.25784 35.639C7.28106 35.8505 7.30807 36.0607 7.33903 36.2695L7.35237 36.3665C7.37699 36.543 7.4035 36.7195 7.43174 36.896C7.46526 37.1049 7.50132 37.3137 7.54002 37.5226C7.57864 37.7287 7.61989 37.9349 7.6637 38.1411C7.7075 38.35 7.75386 38.5562 7.80285 38.7597C7.85176 38.966 7.90331 39.1708 7.95741 39.3744C8.01159 39.5779 8.06692 39.7815 8.12365 39.985C8.18294 40.1886 8.24478 40.3908 8.30917 40.5917C8.37356 40.7926 8.43927 40.9935 8.50629 41.1945C8.57587 41.3927 8.64676 41.591 8.71889 41.7892C8.79102 41.9875 8.86702 42.1844 8.9469 42.3801C9.02421 42.5757 9.10408 42.77 9.18659 42.963C9.2341 43.0742 9.28252 43.1855 9.33176 43.2968C9.3679 43.3785 9.40454 43.4602 9.44168 43.5419C9.50113 43.6711 9.56173 43.8002 9.62357 43.9294C9.65288 43.9906 9.68244 44.0517 9.71225 44.1129C9.80241 44.3006 9.89645 44.4883 9.99443 44.676C10.0419 44.7697 10.0902 44.863 10.139 44.956C10.1881 45.0494 10.2378 45.1424 10.2881 45.2351C10.3912 45.4175 10.4956 45.5999 10.6012 45.7823C10.7043 45.9647 10.8113 46.1458 10.9221 46.3256C11.0328 46.5027 11.145 46.6798 11.2584 46.8569C11.3717 47.0341 11.4877 47.2085 11.6062 47.3803C11.7247 47.5548 11.8459 47.7267 11.9695 47.8958C12.0907 48.065 12.2143 48.2329 12.3406 48.3994C12.4669 48.5686 12.5957 48.7352 12.7271 48.8991C12.7892 48.9754 12.8517 49.0516 12.9145 49.1279C12.9844 49.2129 13.0546 49.2979 13.1252 49.3828C13.2592 49.5441 13.3958 49.7027 13.5349 49.8587C13.6715 50.0147 13.8107 50.1693 13.9524 50.3226C14.0966 50.4759 14.241 50.6279 14.3853 50.7786C14.5321 50.9293 14.6803 51.0773 14.8297 51.2228C14.9793 51.3681 15.1299 51.5122 15.282 51.655C15.434 51.7951 15.5887 51.9352 15.7459 52.0753C15.9004 52.2127 16.0576 52.3489 16.2173 52.4837C20.7706 56.3698 27.2061 58.4 33.1238 57.94C39.2887 57.6307 45.3262 54.5893 49.4658 49.9221C49.5449 49.835 49.6231 49.7471 49.7005 49.6582C49.7593 49.5907 49.8177 49.5227 49.8755 49.4542C50.0095 49.2956 50.1422 49.1344 50.2737 48.9705C50.4051 48.8092 50.5339 48.6466 50.6602 48.4827C50.7864 48.3161 50.9114 48.1483 51.0351 47.9791C51.1588 47.8126 51.2799 47.6434 51.3984 47.4715C51.517 47.2997 51.6329 47.1266 51.7463 46.9521C51.8623 46.7776 51.9756 46.6018 52.0864 46.4247C52.1972 46.2449 52.3055 46.0652 52.4111 45.8854C52.5167 45.7057 52.6198 45.5246 52.7203 45.3422C52.8234 45.1598 52.9239 44.976 53.0218 44.791C53.1171 44.606 53.2112 44.4196 53.304 44.2319C53.3545 44.1297 53.4042 44.0272 53.4532 43.9242C53.4942 43.838 53.5346 43.7516 53.5745 43.6648C53.6647 43.4745 53.751 43.2829 53.8335 43.0899C53.9186 42.8969 53.9997 42.7039 54.077 42.5109C54.1569 42.3153 54.2342 42.1197 54.3089 41.924C54.3811 41.7284 54.4519 41.5315 54.5215 41.3332C54.5911 41.135 54.6581 40.9354 54.7225 40.7345C54.7869 40.5362 54.85 40.3366 54.9119 40.1357C54.9712 39.9348 55.0278 39.7325 55.0819 39.529C55.1087 39.4282 55.1352 39.3274 55.1614 39.2266C55.1881 39.1238 55.2144 39.0211 55.2405 38.9184C55.2894 38.7148 55.3371 38.5099 55.3834 38.3037C55.4272 38.0975 55.4698 37.8913 55.511 37.6851C55.5316 37.5751 55.5519 37.465 55.5718 37.3549C55.5892 37.2588 55.6063 37.1627 55.6231 37.0665C55.6566 36.8577 55.6888 36.6502 55.7197 36.444C55.7506 36.2351 55.7777 36.0263 55.8009 35.8175C55.8266 35.6086 55.8499 35.3985 55.8704 35.187C55.8885 34.9781 55.9052 34.7693 55.9207 34.5604C55.9362 34.349 55.949 34.1388 55.9594 33.93C55.9671 33.7185 55.9735 33.5083 55.9787 33.2995C55.9838 33.088 55.9864 32.8778 55.9864 32.669C55.9864 32.4575 55.9838 32.246 55.9787 32.0345C55.9735 31.8257 55.9645 31.6155 55.9516 31.404C55.5999 24.3934 52.6624 18.14 47.5719 13.4728C47.425 13.338 47.2756 13.2059 47.1235 13.0763C46.9741 12.9441 46.822 12.8159 46.6674 12.6917C46.5128 12.5648 46.3569 12.4392 46.1997 12.315C46.1347 12.2647 46.0695 12.2146 46.004 12.1648C45.9112 12.0941 45.818 12.0239 45.7243 11.9541C45.5646 11.8352 45.4035 11.7189 45.2412 11.6052C45.1656 11.5523 45.0898 11.4996 45.0137 11.4473C44.9262 11.3872 44.8384 11.3275 44.7503 11.2681C44.5854 11.1571 44.4192 11.0487 44.2517 10.943C44.1216 10.8608 43.99 10.7795 43.8568 10.699C43.8185 10.6758 43.78 10.6527 43.7414 10.6297C43.5714 10.5266 43.4 10.4262 43.2274 10.3283C43.0547 10.2305 42.8808 10.1354 42.7056 10.0428C42.5329 9.94766 42.3577 9.85649 42.1799 9.76922C42.0021 9.67935 41.8243 9.59212 41.6465 9.50753C41.4662 9.42294 41.2858 9.33965 41.1054 9.2577C40.925 9.17839 40.7433 9.10042 40.5604 9.02374C40.3775 8.94971 40.1932 8.87702 40.0077 8.80567C39.8222 8.73428 39.6366 8.66557 39.4511 8.59945C39.2656 8.53338 39.0787 8.46861 38.8907 8.40518C38.7025 8.34434 38.5145 8.28489 38.3263 8.22674C38.1356 8.17122 37.945 8.11701 37.7543 8.06414C37.5636 8.01126 37.3729 7.96103 37.1822 7.91347C36.9889 7.86588 36.797 7.82092 36.6063 7.77865C36.413 7.73369 36.2198 7.69272 36.0265 7.65572C35.9163 7.63486 35.8064 7.61445 35.697 7.59447C35.612 7.57893 35.5274 7.56368 35.4429 7.54863C35.247 7.51428 35.0525 7.4839 34.8593 7.45747C34.6634 7.42835 34.4676 7.40195 34.2717 7.37816C34.0759 7.35436 33.8801 7.3332 33.6842 7.31468C33.4858 7.29621 33.2887 7.28033 33.0928 7.26713C32.897 7.25389 32.6999 7.24199 32.5014 7.23143C32.3056 7.22351 32.1085 7.21819 31.9101 7.21555C31.7143 7.21027 31.5171 7.20763 31.3187 7.20763C31.1825 7.20948 31.0457 7.21195 30.9082 7.21505C30.848 7.21643 30.7878 7.21794 30.7273 7.21953C30.6658 7.22117 30.6044 7.22305 30.5431 7.22519C30.4068 7.23001 30.271 7.236 30.136 7.24333Z" fill="#A5C6C6"/>
<path d="M31.3743 9.61017C31.9619 9.62868 32.5494 9.6538 33.1369 9.68552C38.9104 10.0346 44.2961 13.0132 48.0915 17.3444C51.9575 21.7548 54.2802 27.962 53.9276 33.9074C52.4197 33.955 50.9077 33.959 49.3998 33.9788C49.4898 28.9139 47.6998 23.8569 44.2177 20.1763C40.7787 16.5392 36.3488 14.56 31.3822 14.4569C31.3508 12.8427 31.3743 11.2244 31.3743 9.61017Z" fill="#A5C6C6"/>
</svg>
